<svg width="86" height="18" viewBox="0 0 86 18" fill="none" xmlns="http://www.w3.org/2000/svg">
<path d="M0.035 0.922999H3.945L8.591 10.882L13.26 0.922999H17.147V17H13.352V8.927L9.511 17H7.671L3.853 8.927V17H0.035V0.922999ZM27.9046 17.345C26.2793 17.345 24.8073 16.9923 23.4886 16.287C22.1853 15.5817 21.1503 14.6003 20.3836 13.343C19.6323 12.0703 19.2566 10.6137 19.2566 8.973C19.2566 7.33233 19.6323 5.87567 20.3836 4.603C21.1503 3.33033 22.1853 2.34133 23.4886 1.636C24.8073 0.930666 26.2793 0.577999 27.9046 0.577999C29.5146 0.577999 30.9713 0.930666 32.2746 1.636C33.5933 2.34133 34.6283 3.33033 35.3796 4.603C36.131 5.87567 36.5066 7.33233 36.5066 8.973C36.5066 10.6137 36.131 12.0703 35.3796 13.343C34.6283 14.6003 33.5933 15.5817 32.2746 16.287C30.9713 16.9923 29.5146 17.345 27.9046 17.345ZM27.9046 13.527C28.7173 13.527 29.461 13.343 30.1356 12.975C30.8103 12.607 31.347 12.078 31.7456 11.388C32.1443 10.698 32.3436 9.893 32.3436 8.973C32.3436 8.053 32.1443 7.25567 31.7456 6.581C31.3623 5.891 30.8333 5.362 30.1586 4.994C29.484 4.61067 28.7326 4.419 27.9046 4.419C27.0613 4.419 26.3023 4.61067 25.6276 4.994C24.953 5.362 24.4163 5.891 24.0176 6.581C23.6343 7.25567 23.4426 8.053 23.4426 8.973C23.4426 9.893 23.6343 10.698 24.0176 11.388C24.4163 12.078 24.953 12.607 25.6276 12.975C26.3176 13.343 27.0766 13.527 27.9046 13.527ZM36.6473 0.922999H40.9943L45.0883 11.618L49.1823 0.922999H53.5063L47.0893 17H43.0873L36.6473 0.922999ZM55.6209 0.922999H67.0289V4.35H59.6919V7.363H65.0509V10.56H59.6919V13.573H67.0289V17H55.6209V0.922999ZM75.1283 0.922999H79.1303L85.5473 17H81.3843L80.0963 13.688H74.1623L72.8743 17H68.6883L75.1283 0.922999ZM79.0843 10.56L77.1293 5.155L75.1513 10.56H79.0843Z" fill="white"/>
<path d="M0.0350001 0.922999V-0.0770013H-0.965V0.922999H0.0350001ZM3.945 0.922999L4.85124 0.500228L4.58195 -0.0770013H3.945V0.922999ZM8.591 10.882L7.68476 11.3048L8.58876 13.2426L9.49643 11.3065L8.591 10.882ZM13.26 0.922999V-0.0770013H12.6244L12.3546 0.498511L13.26 0.922999ZM17.147 0.922999H18.147V-0.0770013H17.147V0.922999ZM17.147 17V18H18.147V17H17.147ZM13.352 17H12.352V18H13.352V17ZM13.352 8.927H14.352L12.449 8.49737L13.352 8.927ZM9.511 17V18H10.1426L10.414 17.4296L9.511 17ZM7.671 17L6.767 17.4275L7.03774 18H7.671V17ZM3.853 8.927L4.757 8.49947L2.853 8.927H3.853ZM3.853 17V18H4.853V17H3.853ZM0.0350001 17H-0.965V18H0.0350001V17ZM0.0350001 1.923H3.945V-0.0770013H0.0350001V1.923ZM3.03876 1.34577L7.68476 11.3048L9.49724 10.4592L4.85124 0.500228L3.03876 1.34577ZM9.49643 11.3065L14.1654 1.34749L12.3546 0.498511L7.68557 10.4575L9.49643 11.3065ZM13.26 1.923H17.147V-0.0770013H13.26V1.923ZM16.147 0.922999V17H18.147V0.922999H16.147ZM17.147 16H13.352V18H17.147V16ZM14.352 17V8.927H12.352V17H14.352ZM12.449 8.49737L8.608 16.5704L10.414 17.4296L14.255 9.35663L12.449 8.49737ZM9.511 16H7.671V18H9.511V16ZM8.575 16.5725L4.757 8.49947L2.949 9.35453L6.767 17.4275L8.575 16.5725ZM2.853 8.927V17H4.853V8.927H2.853ZM3.853 16H0.0350001V18H3.853V16ZM1.035 17V0.922999H-0.965V17H1.035ZM23.4886 16.287L23.0127 17.1665L23.017 17.1688L23.4886 16.287ZM20.3836 13.343L19.5225 13.8514L19.5261 13.8575L19.5298 13.8636L20.3836 13.343ZM20.3836 4.603L19.527 4.08697L19.5225 4.09462L20.3836 4.603ZM23.4886 1.636L23.017 0.754204L23.0127 0.756527L23.4886 1.636ZM32.2746 1.636L31.7987 2.51548L31.803 2.51778L32.2746 1.636ZM35.3796 4.603L34.5185 5.11138V5.11138L35.3796 4.603ZM35.3796 13.343L36.2381 13.856L36.2408 13.8514L35.3796 13.343ZM32.2746 16.287L31.803 15.4052L31.7987 15.4075L32.2746 16.287ZM30.1356 12.975L29.6568 12.0971L30.1356 12.975ZM31.7456 11.388L30.8798 10.8877V10.8877L31.7456 11.388ZM31.7456 6.581L30.8715 7.06664L30.8779 7.07827L30.8847 7.08973L31.7456 6.581ZM30.1586 4.994L29.6646 5.86346L29.6722 5.86774L29.6798 5.8719L30.1586 4.994ZM25.6276 4.994L26.1065 5.8719L26.1141 5.86774L26.1217 5.86346L25.6276 4.994ZM24.0176 6.581L23.1518 6.08071L23.1482 6.08699L24.0176 6.581ZM24.0176 11.388L23.1435 11.8736L23.1476 11.881L23.1518 11.8883L24.0176 11.388ZM25.6276 12.975L25.1488 13.8529L25.1571 13.8574L25.6276 12.975ZM27.9046 16.345C26.4292 16.345 25.1215 16.0263 23.9603 15.4052L23.017 17.1688C24.4931 17.9583 26.1294 18.345 27.9046 18.345V16.345ZM23.9646 15.4075C22.8157 14.7858 21.9115 13.9278 21.2374 12.8224L19.5298 13.8636C20.3891 15.2729 21.5549 16.3776 23.0127 17.1665L23.9646 15.4075ZM21.2448 12.8346C20.5941 11.7325 20.2566 10.4551 20.2566 8.973H18.2566C18.2566 10.7723 18.6705 12.4082 19.5225 13.8514L21.2448 12.8346ZM20.2566 8.973C20.2566 7.49094 20.5941 6.21353 21.2448 5.11138L19.5225 4.09462C18.6705 5.53781 18.2566 7.17372 18.2566 8.973H20.2566ZM21.2402 5.11901C21.915 3.9989 22.8187 3.13558 23.9646 2.51547L23.0127 0.756527C21.5519 1.54708 20.3856 2.66177 19.5271 4.08699L21.2402 5.11901ZM23.9603 2.51778C25.1215 1.89668 26.4292 1.578 27.9046 1.578V-0.422001C26.1294 -0.422001 24.4931 -0.0353507 23.017 0.754214L23.9603 2.51778ZM27.9046 1.578C29.3632 1.578 30.6539 1.89596 31.7987 2.51547L32.7506 0.756527C31.2887 -0.034633 29.6661 -0.422001 27.9046 -0.422001V1.578ZM31.803 2.51778C32.9621 3.13777 33.8615 3.99848 34.5185 5.11138L36.2408 4.09462C35.3951 2.66218 34.2245 1.5449 32.7463 0.754214L31.803 2.51778ZM34.5185 5.11138C35.1692 6.21353 35.5066 7.49094 35.5066 8.973H37.5066C37.5066 7.17372 37.0928 5.53781 36.2408 4.09462L34.5185 5.11138ZM35.5066 8.973C35.5066 10.4551 35.1692 11.7325 34.5185 12.8346L36.2408 13.8514C37.0928 12.4082 37.5066 10.7723 37.5066 8.973H35.5066ZM34.5212 12.83C33.865 13.9282 32.9652 14.7836 31.803 15.4052L32.7463 17.1688C34.2214 16.3798 35.3916 15.2724 36.2381 13.856L34.5212 12.83ZM31.7987 15.4075C30.6539 16.027 29.3632 16.345 27.9046 16.345V18.345C29.6661 18.345 31.2887 17.9576 32.7506 17.1665L31.7987 15.4075ZM27.9046 14.527C28.8747 14.527 29.7845 14.3056 30.6145 13.8529L29.6568 12.0971C29.1375 12.3804 28.5599 12.527 27.9046 12.527V14.527ZM30.6145 13.8529C31.4565 13.3936 32.1245 12.7311 32.6115 11.8883L30.8798 10.8877C30.5694 11.4249 30.1641 11.8204 29.6568 12.0971L30.6145 13.8529ZM32.6115 11.8883C33.1108 11.024 33.3436 10.0412 33.3436 8.973H31.3436C31.3436 9.74484 31.1778 10.372 30.8798 10.8877L32.6115 11.8883ZM33.3436 8.973C33.3436 7.90548 33.111 6.926 32.6066 6.07227L30.8847 7.08973C31.1776 7.58533 31.3436 8.20052 31.3436 8.973H33.3436ZM32.6198 6.09536C32.1471 5.24455 31.4831 4.57735 30.6375 4.1161L29.6798 5.8719C30.1835 6.14665 30.5775 6.53745 30.8715 7.06664L32.6198 6.09536ZM30.6527 4.12454C29.8173 3.6499 28.8938 3.419 27.9046 3.419V5.419C28.5715 5.419 29.1507 5.57143 29.6646 5.86346L30.6527 4.12454ZM27.9046 3.419C26.9036 3.419 25.9718 3.64831 25.1336 4.12454L26.1217 5.86346C26.6328 5.57302 27.219 5.419 27.9046 5.419V3.419ZM25.1488 4.1161C24.3068 4.5754 23.6388 5.23786 23.1518 6.08072L24.8835 7.08128C25.1939 6.54414 25.5992 6.1486 26.1065 5.8719L25.1488 4.1161ZM23.1482 6.08699C22.6647 6.938 22.4426 7.91206 22.4426 8.973H24.4426C24.4426 8.19394 24.604 7.57333 24.8871 7.07501L23.1482 6.08699ZM22.4426 8.973C22.4426 10.0346 22.6649 11.0122 23.1435 11.8736L24.8918 10.9024C24.6037 10.3838 24.4426 9.75138 24.4426 8.973H22.4426ZM23.1518 11.8883C23.6388 12.7311 24.3068 13.3936 25.1488 13.8529L26.1065 12.0971C25.5992 11.8204 25.1939 11.4249 24.8835 10.8877L23.1518 11.8883ZM25.1571 13.8574C26.0004 14.3071 26.9225 14.527 27.9046 14.527V12.527C27.2308 12.527 26.6349 12.3789 26.0982 12.0926L25.1571 13.8574ZM36.6473 0.922999V-0.0770013H35.1694L35.719 1.29485L36.6473 0.922999ZM40.9943 0.922999L41.9282 0.5655L41.6822 -0.0770013H40.9943V0.922999ZM45.0883 11.618L44.1544 11.9755L45.0883 14.4152L46.0222 11.9755L45.0883 11.618ZM49.1823 0.922999V-0.0770013H48.4943L48.2484 0.5655L49.1823 0.922999ZM53.5063 0.922999L54.435 1.2937L54.9821 -0.0770013H53.5063V0.922999ZM47.0893 17V18H47.7668L48.018 17.3707L47.0893 17ZM43.0873 17L42.159 17.3718L42.4106 18H43.0873V17ZM36.6473 1.923H40.9943V-0.0770013H36.6473V1.923ZM40.0604 1.2805L44.1544 11.9755L46.0222 11.2605L41.9282 0.5655L40.0604 1.2805ZM46.0222 11.9755L50.1162 1.2805L48.2484 0.5655L44.1544 11.2605L46.0222 11.9755ZM49.1823 1.923H53.5063V-0.0770013H49.1823V1.923ZM52.5775 0.552295L46.1605 16.6293L48.018 17.3707L54.435 1.2937L52.5775 0.552295ZM47.0893 16H43.0873V18H47.0893V16ZM44.0156 16.6282L37.5756 0.55115L35.719 1.29485L42.159 17.3718L44.0156 16.6282ZM55.6209 0.922999V-0.0770013H54.6209V0.922999H55.6209ZM67.0289 0.922999H68.0289V-0.0770013H67.0289V0.922999ZM67.0289 4.35V5.35H68.0289V4.35H67.0289ZM59.6919 4.35V3.35H58.6919V4.35H59.6919ZM59.6919 7.363H58.6919V8.363H59.6919V7.363ZM65.0509 7.363H66.0509V6.363H65.0509V7.363ZM65.0509 10.56V11.56H66.0509V10.56H65.0509ZM59.6919 10.56V9.56H58.6919V10.56H59.6919ZM59.6919 13.573H58.6919V14.573H59.6919V13.573ZM67.0289 13.573H68.0289V12.573H67.0289V13.573ZM67.0289 17V18H68.0289V17H67.0289ZM55.6209 17H54.6209V18H55.6209V17ZM55.6209 1.923H67.0289V-0.0770013H55.6209V1.923ZM66.0289 0.922999V4.35H68.0289V0.922999H66.0289ZM67.0289 3.35H59.6919V5.35H67.0289V3.35ZM58.6919 4.35V7.363H60.6919V4.35H58.6919ZM59.6919 8.363H65.0509V6.363H59.6919V8.363ZM64.0509 7.363V10.56H66.0509V7.363H64.0509ZM65.0509 9.56H59.6919V11.56H65.0509V9.56ZM58.6919 10.56V13.573H60.6919V10.56H58.6919ZM59.6919 14.573H67.0289V12.573H59.6919V14.573ZM66.0289 13.573V17H68.0289V13.573H66.0289ZM67.0289 16H55.6209V18H67.0289V16ZM56.6209 17V0.922999H54.6209V17H56.6209ZM75.1283 0.922999V-0.0770013H74.4516L74.2 0.55115L75.1283 0.922999ZM79.1303 0.922999L80.059 0.552295L79.8079 -0.0770013H79.1303V0.922999ZM85.5473 17V18H87.0231L86.476 16.6293L85.5473 17ZM81.3843 17L80.4523 17.3624L80.7002 18H81.3843V17ZM80.0963 13.688L81.0283 13.3256L80.7803 12.688H80.0963V13.688ZM74.1623 13.688V12.688H73.4782L73.2303 13.3256L74.1623 13.688ZM72.8743 17V18H73.5583L73.8063 17.3624L72.8743 17ZM68.6883 17L67.76 16.6282L67.2105 18H68.6883V17ZM79.0843 10.56V11.56H80.5094L80.0247 10.2199L79.0843 10.56ZM77.1293 5.155L78.0697 4.81486L77.1348 2.23019L76.1902 4.81133L77.1293 5.155ZM75.1513 10.56L74.2122 10.2163L73.7205 11.56H75.1513V10.56ZM75.1283 1.923H79.1303V-0.0770013H75.1283V1.923ZM78.2015 1.2937L84.6185 17.3707L86.476 16.6293L80.059 0.552295L78.2015 1.2937ZM85.5473 16H81.3843V18H85.5473V16ZM82.3163 16.6376L81.0283 13.3256L79.1643 14.0504L80.4523 17.3624L82.3163 16.6376ZM80.0963 12.688H74.1623V14.688H80.0963V12.688ZM73.2303 13.3256L71.9423 16.6376L73.8063 17.3624L75.0943 14.0504L73.2303 13.3256ZM72.8743 16H68.6883V18H72.8743V16ZM69.6166 17.3718L76.0566 1.29485L74.2 0.55115L67.76 16.6282L69.6166 17.3718ZM80.0247 10.2199L78.0697 4.81486L76.1889 5.49513L78.1439 10.9001L80.0247 10.2199ZM76.1902 4.81133L74.2122 10.2163L76.0904 10.9037L78.0684 5.49867L76.1902 4.81133ZM75.1513 11.56H79.0843V9.56H75.1513V11.56Z" fill="#CCCCCC"/>
</svg>
